<svg xmlns="http://www.w3.org/2000/svg" class="graphdiagram" viewBox="-1920.9070127549485 -93.32453600577333 4260.662222759202 2334.4878428868133"><g class="layer relationships"><g class="related-pair"><g class="relationship" transform="translate(-512.5105419158936,651.6122283935547) rotate(8.24376815033593)"><path class="relationship" d="M 198.8582528952615 4 L 752.9781299399074 4 L 752.9781299399074 16 L 784.9781299399074 0 L 752.9781299399074 -16 L 752.9781299399074 -4 L 198.8582528952615 -4 Z" fill="rgb(0, 0, 0)" stroke="rgb(51, 51, 51)" stroke-width="0px"/><text class="type" text-anchor="middle" baseline-shift="30%" alignment-baseline="alphabetic" x="475.9181914175844" y="0" font-size="50px" font-family="&quot;Gill Sans&quot;, &quot;Gill Sans MT&quot;, Calibri, sans-serif">HAS</text></g></g><g class="related-pair"><g class="relationship" transform="translate(443.80979919433594,790.1658782958984) rotate(68.61921108474768)"><path class="relationship" d="M 181.32705411037335 4 L 792.4386499013536 4 L 792.4386499013536 16 L 824.4386499013536 0 L 792.4386499013536 -16 L 792.4386499013536 -4 L 181.32705411037335 -4 Z" fill="rgb(0, 0, 0)" stroke="rgb(51, 51, 51)" stroke-width="0px"/><text class="type" text-anchor="middle" baseline-shift="30%" alignment-baseline="alphabetic" x="486.8828520058635" y="0" font-size="50px" font-family="&quot;Gill Sans&quot;, &quot;Gill Sans MT&quot;, Calibri, sans-serif">DEFINED</text></g></g><g class="related-pair"><g class="relationship" transform="translate(1072.0745162963867,50.96149444580078) rotate(98.81444304813262)"><path class="relationship" d="M 89.65072016845528 4 L 1482.2539748527201 4 L 1482.2539748527201 16 L 1514.2539748527201 0 L 1482.2539748527201 -16 L 1482.2539748527201 -4 L 89.65072016845528 -4 Z" fill="rgb(0, 0, 0)" stroke="rgb(51, 51, 51)" stroke-width="0px"/><text class="type" text-anchor="middle" baseline-shift="30%" alignment-baseline="alphabetic" transform="rotate(180)" x="-785.9523475105877" y="0" font-size="50px" font-family="&quot;Gill Sans&quot;, &quot;Gill Sans MT&quot;, Calibri, sans-serif">DEFINED</text></g></g><g class="related-pair"><g class="relationship" transform="translate(443.80979919433594,790.1658782958984) rotate(-49.63811886074607)"><path class="relationship" d="M 181.32705411037335 4 L 848.4728162218967 4 L 848.4728162218967 16 L 880.4728162218967 0 L 848.4728162218967 -16 L 848.4728162218967 -4 L 181.32705411037335 -4 Z" fill="rgb(0, 0, 0)" stroke="rgb(51, 51, 51)" stroke-width="0px"/><text class="type" text-anchor="middle" baseline-shift="30%" alignment-baseline="alphabetic" x="514.899935166135" y="0" font-size="50px" font-family="&quot;Gill Sans&quot;, &quot;Gill Sans MT&quot;, Calibri, sans-serif">BE_OBSERVED</text></g></g><g class="related-pair"><g class="relationship" transform="translate(-512.5105419158936,651.6122283935547) rotate(-20.75964838068489)"><path class="relationship" d="M 198.8582528952615 4 L 1572.9557565398072 4 L 1572.9557565398072 16 L 1604.9557565398072 0 L 1572.9557565398072 -16 L 1572.9557565398072 -4 L 198.8582528952615 -4 Z" fill="rgb(0, 0, 0)" stroke="rgb(51, 51, 51)" stroke-width="0px"/><text class="type" text-anchor="middle" baseline-shift="30%" alignment-baseline="alphabetic" x="885.9070047175344" y="0" font-size="50px" font-family="&quot;Gill Sans&quot;, &quot;Gill Sans MT&quot;, Calibri, sans-serif">BE_OBSERVED</text></g></g><g class="related-pair"><g class="relationship" transform="translate(-512.5105419158936,651.6122283935547) rotate(39.15509194613495)"><path class="relationship" d="M 198.8582528952615 4 L 1490.9677270052225 4 L 1490.9677270052225 16 L 1522.9677270052225 0 L 1490.9677270052225 -16 L 1490.9677270052225 -4 L 198.8582528952615 -4 Z" fill="rgb(0, 0, 0)" stroke="rgb(51, 51, 51)" stroke-width="0px"/><text class="type" text-anchor="middle" baseline-shift="30%" alignment-baseline="alphabetic" x="844.912989950242" y="0" font-size="50px" font-family="&quot;Gill Sans&quot;, &quot;Gill Sans MT&quot;, Calibri, sans-serif">DEFINED</text></g></g></g><g class="layer nodes"><circle class="node node-id-0" r="183.8582528952615" fill="rgb(255, 255, 255)" stroke="rgb(0, 0, 0)" stroke-width="8px" cx="-512.5105419158936" cy="651.6122283935547"/><circle class="node node-id-1" r="166.32705411037335" fill="rgb(255, 255, 255)" stroke="rgb(0, 0, 0)" stroke-width="8px" cx="443.80979919433594" cy="790.1658782958984"/><circle class="node node-id-2" r="74.65072016845528" fill="rgb(255, 255, 255)" stroke="rgb(0, 0, 0)" stroke-width="8px" cx="1072.0745162963867" cy="50.96149444580078"/><circle class="node node-id-3" r="169.75675933465286" fill="rgb(255, 255, 255)" stroke="rgb(0, 0, 0)" stroke-width="8px" cx="811.7267036437988" cy="1729.9065475463867"/><g class="caption"><text class="caption node" text-anchor="middle" alignment-baseline="central" x="-512.5105419158936" y="651.6122283935547" fill="rgb(51, 51, 51)" font-size="50px" font-family="&quot;Gill Sans&quot;, &quot;Gill Sans MT&quot;, Calibri, sans-serif">Country/Region</text></g><g class="caption"><text class="caption node" text-anchor="middle" alignment-baseline="central" x="443.80979919433594" y="790.1658782958984" fill="rgb(51, 51, 51)" font-size="50px" font-family="&quot;Gill Sans&quot;, &quot;Gill Sans MT&quot;, Calibri, sans-serif">Province/State</text></g><g class="caption"><text class="caption node" text-anchor="middle" alignment-baseline="central" x="1072.0745162963867" y="50.96149444580078" fill="rgb(51, 51, 51)" font-size="50px" font-family="&quot;Gill Sans&quot;, &quot;Gill Sans MT&quot;, Calibri, sans-serif">Date</text></g><g class="caption"><text class="caption node" text-anchor="middle" alignment-baseline="central" x="811.7267036437988" y="1729.9065475463867" fill="rgb(51, 51, 51)" font-size="50px" font-family="&quot;Gill Sans&quot;, &quot;Gill Sans MT&quot;, Calibri, sans-serif">InfectionStatus</text></g></g><g class="layer properties"><g class="speech-bubble node-speech-bubble" transform="translate(-696.3687948111551,651.6122283935547) "><path class="speech-bubble-outline" transform="scale(-1,1) " d="M 0 0 L 20 -10 L 20 -50 A 10 10 0 0 1 30 -60 L 694.5751953125 -60 A 10 10 0 0 1 704.5751953125 -50 L 704.5751953125 50 A 10 10 0 0 1 694.5751953125 60 L 30 60 A 10 10 0 0 1 20 50 L 20 10 Z" fill="rgb(255, 255, 255)" stroke="rgb(0, 0, 0)" stroke-width="3px"/><text class="speech-bubble-content property-key" x="-357.3681640625" y="-25" alignment-baseline="central" text-anchor="end" font-size="50px" font-family="&quot;Gill Sans&quot;, &quot;Gill Sans MT&quot;, Calibri, sans-serif" xml:space="preserve">{CountryId: </text><text class="speech-bubble-content property-key" x="-357.3681640625" y="25" alignment-baseline="central" text-anchor="end" font-size="50px" font-family="&quot;Gill Sans&quot;, &quot;Gill Sans MT&quot;, Calibri, sans-serif" xml:space="preserve">{CountryName: </text><text class="speech-bubble-content property-value" x="-357.3681640625" y="-25" alignment-baseline="central" font-size="50px" font-family="&quot;Gill Sans&quot;, &quot;Gill Sans MT&quot;, Calibri, sans-serif">121}</text><text class="speech-bubble-content property-value" x="-357.3681640625" y="25" alignment-baseline="central" font-size="50px" font-family="&quot;Gill Sans&quot;, &quot;Gill Sans MT&quot;, Calibri, sans-serif">Mainland China}</text></g><g class="speech-bubble node-speech-bubble" transform="translate(326.1988113381091,907.7768661521253) "><path class="speech-bubble-outline" transform="scale(-1,1) " d="M 0 0 L 30 20 L 535.8837890625 20 A 10 10 0 0 1 545.8837890625 30 L 545.8837890625 130 A 10 10 0 0 1 535.8837890625 140 L 30 140 A 10 10 0 0 1 20 130 L 20 30 Z" fill="rgb(255, 255, 255)" stroke="rgb(0, 0, 0)" stroke-width="3px"/><text class="speech-bubble-content property-key" x="-196.650390625" y="55" alignment-baseline="central" text-anchor="end" font-size="50px" font-family="&quot;Gill Sans&quot;, &quot;Gill Sans MT&quot;, Calibri, sans-serif" xml:space="preserve">{ProvinceId: </text><text class="speech-bubble-content property-key" x="-196.650390625" y="105" alignment-baseline="central" text-anchor="end" font-size="50px" font-family="&quot;Gill Sans&quot;, &quot;Gill Sans MT&quot;, Calibri, sans-serif" xml:space="preserve">{ProvinceName: </text><text class="speech-bubble-content property-value" x="-196.650390625" y="55" alignment-baseline="central" font-size="50px" font-family="&quot;Gill Sans&quot;, &quot;Gill Sans MT&quot;, Calibri, sans-serif">121013}</text><text class="speech-bubble-content property-value" x="-196.650390625" y="105" alignment-baseline="central" font-size="50px" font-family="&quot;Gill Sans&quot;, &quot;Gill Sans MT&quot;, Calibri, sans-serif">Hubei}</text></g><g class="speech-bubble node-speech-bubble" transform="translate(1124.8605467479608,-1.824536005773318) "><path class="speech-bubble-outline" transform="scale(1,-1) " d="M 0 0 L 30 20 L 718.76953125 20 A 10 10 0 0 1 728.76953125 30 L 728.76953125 180 A 10 10 0 0 1 718.76953125 190 L 30 190 A 10 10 0 0 1 20 180 L 20 30 Z" fill="rgb(255, 255, 255)" stroke="rgb(0, 0, 0)" stroke-width="3px"/><text class="speech-bubble-content property-key" x="458.857421875" y="-155" alignment-baseline="central" text-anchor="end" font-size="50px" font-family="&quot;Gill Sans&quot;, &quot;Gill Sans MT&quot;, Calibri, sans-serif" xml:space="preserve">{ObservationDate: </text><text class="speech-bubble-content property-value" x="458.857421875" y="-155" alignment-baseline="central" font-size="50px" font-family="&quot;Gill Sans&quot;, &quot;Gill Sans MT&quot;, Calibri, sans-serif">mm/dd/yyyy}</text><text class="speech-bubble-content property-key" x="458.857421875" y="-105" alignment-baseline="central" text-anchor="end" font-size="50px" font-family="&quot;Gill Sans&quot;, &quot;Gill Sans MT&quot;, Calibri, sans-serif" xml:space="preserve">{ObservationYear: </text><text class="speech-bubble-content property-key" x="458.857421875" y="-55" alignment-baseline="central" text-anchor="end" font-size="50px" font-family="&quot;Gill Sans&quot;, &quot;Gill Sans MT&quot;, Calibri, sans-serif" xml:space="preserve">{ObservationMonth: </text><text class="speech-bubble-content property-value" x="458.857421875" y="-105" alignment-baseline="central" font-size="50px" font-family="&quot;Gill Sans&quot;, &quot;Gill Sans MT&quot;, Calibri, sans-serif">2020}</text><text class="speech-bubble-content property-value" x="458.857421875" y="-55" alignment-baseline="central" font-size="50px" font-family="&quot;Gill Sans&quot;, &quot;Gill Sans MT&quot;, Calibri, sans-serif">5}</text></g><g class="speech-bubble node-speech-bubble" transform="translate(811.7267036437988,1899.6633068810395) "><path class="speech-bubble-outline" transform="scale(1,1) " d="M 0 0 L -10 20 L -332.12890625 20 A 10 10 0 0 0 -342.12890625 30 L -342.12890625 330 A 10 10 0 0 0 -332.12890625 340 L 332.12890625 340 A 10 10 0 0 0 342.12890625 330 L 342.12890625 30 A 10 10 0 0 0 332.12890625 20 L 10 20 Z" fill="rgb(255, 255, 255)" stroke="rgb(0, 0, 0)" stroke-width="3px"/><text class="speech-bubble-content property-key" x="72.216796875" y="55" alignment-baseline="central" text-anchor="end" font-size="50px" font-family="&quot;Gill Sans&quot;, &quot;Gill Sans MT&quot;, Calibri, sans-serif" xml:space="preserve">{Confirmed: </text><text class="speech-bubble-content property-key" x="72.216796875" y="105" alignment-baseline="central" text-anchor="end" font-size="50px" font-family="&quot;Gill Sans&quot;, &quot;Gill Sans MT&quot;, Calibri, sans-serif" xml:space="preserve">{Deaths: </text><text class="speech-bubble-content property-key" x="72.216796875" y="155" alignment-baseline="central" text-anchor="end" font-size="50px" font-family="&quot;Gill Sans&quot;, &quot;Gill Sans MT&quot;, Calibri, sans-serif" xml:space="preserve">{Recovered: </text><text class="speech-bubble-content property-key" x="72.216796875" y="205" alignment-baseline="central" text-anchor="end" font-size="50px" font-family="&quot;Gill Sans&quot;, &quot;Gill Sans MT&quot;, Calibri, sans-serif" xml:space="preserve">{LastUpdate: </text><text class="speech-bubble-content property-value" x="72.216796875" y="55" alignment-baseline="central" font-size="50px" font-family="&quot;Gill Sans&quot;, &quot;Gill Sans MT&quot;, Calibri, sans-serif">1234}</text><text class="speech-bubble-content property-value" x="72.216796875" y="105" alignment-baseline="central" font-size="50px" font-family="&quot;Gill Sans&quot;, &quot;Gill Sans MT&quot;, Calibri, sans-serif">12}</text><text class="speech-bubble-content property-value" x="72.216796875" y="155" alignment-baseline="central" font-size="50px" font-family="&quot;Gill Sans&quot;, &quot;Gill Sans MT&quot;, Calibri, sans-serif">111}</text><text class="speech-bubble-content property-value" x="72.216796875" y="205" alignment-baseline="central" font-size="50px" font-family="&quot;Gill Sans&quot;, &quot;Gill Sans MT&quot;, Calibri, sans-serif">mm/dd/yyyy}</text><text class="speech-bubble-content property-key" x="72.216796875" y="255" alignment-baseline="central" text-anchor="end" font-size="50px" font-family="&quot;Gill Sans&quot;, &quot;Gill Sans MT&quot;, Calibri, sans-serif" xml:space="preserve">{LastUpdateMonth: </text><text class="speech-bubble-content property-key" x="72.216796875" y="305" alignment-baseline="central" text-anchor="end" font-size="50px" font-family="&quot;Gill Sans&quot;, &quot;Gill Sans MT&quot;, Calibri, sans-serif" xml:space="preserve">{LastUpdateYear: </text><text class="speech-bubble-content property-value" x="72.216796875" y="255" alignment-baseline="central" font-size="50px" font-family="&quot;Gill Sans&quot;, &quot;Gill Sans MT&quot;, Calibri, sans-serif">5}</text><text class="speech-bubble-content property-value" x="72.216796875" y="305" alignment-baseline="central" font-size="50px" font-family="&quot;Gill Sans&quot;, &quot;Gill Sans MT&quot;, Calibri, sans-serif">2020}</text></g></g><g class="layer overlay"><circle class="node overlay" r="187.8582528952615" stroke="none" fill="rgba(255, 255, 255, 0)" cx="-512.5105419158936" cy="651.6122283935547"/><circle class="node overlay" r="170.32705411037335" stroke="none" fill="rgba(255, 255, 255, 0)" cx="443.80979919433594" cy="790.1658782958984"/><circle class="node overlay" r="78.65072016845528" stroke="none" fill="rgba(255, 255, 255, 0)" cx="1072.0745162963867" cy="50.96149444580078"/><circle class="node overlay" r="173.75675933465286" stroke="none" fill="rgba(255, 255, 255, 0)" cx="811.7267036437988" cy="1729.9065475463867"/><circle class="node ring" r="192.8582528952615" fill="none" stroke="rgba(255, 255, 255, 0)" stroke-width="10px" cx="-512.5105419158936" cy="651.6122283935547"/><circle class="node ring" r="175.32705411037335" fill="none" stroke="rgba(255, 255, 255, 0)" stroke-width="10px" cx="443.80979919433594" cy="790.1658782958984"/><circle class="node ring" r="83.65072016845528" fill="none" stroke="rgba(255, 255, 255, 0)" stroke-width="10px" cx="1072.0745162963867" cy="50.96149444580078"/><circle class="node ring" r="178.75675933465286" fill="none" stroke="rgba(255, 255, 255, 0)" stroke-width="10px" cx="811.7267036437988" cy="1729.9065475463867"/><path class="relationship overlay" fill="rgba(255, 255, 255, 0)" stroke="rgba(255, 255, 255, 0)" stroke-width="10px" transform="translate(-512.5105419158936,651.6122283935547) rotate(8.24376815033593)" d="M 198.8582528952615 4 L 752.9781299399074 4 L 752.9781299399074 16 L 784.9781299399074 0 L 752.9781299399074 -16 L 752.9781299399074 -4 L 198.8582528952615 -4 Z"/><path class="relationship overlay" fill="rgba(255, 255, 255, 0)" stroke="rgba(255, 255, 255, 0)" stroke-width="10px" transform="translate(443.80979919433594,790.1658782958984) rotate(68.61921108474768)" d="M 181.32705411037335 4 L 792.4386499013536 4 L 792.4386499013536 16 L 824.4386499013536 0 L 792.4386499013536 -16 L 792.4386499013536 -4 L 181.32705411037335 -4 Z"/><path class="relationship overlay" fill="rgba(255, 255, 255, 0)" stroke="rgba(255, 255, 255, 0)" stroke-width="10px" transform="translate(1072.0745162963867,50.96149444580078) rotate(98.81444304813262)" d="M 89.65072016845528 4 L 1482.2539748527201 4 L 1482.2539748527201 16 L 1514.2539748527201 0 L 1482.2539748527201 -16 L 1482.2539748527201 -4 L 89.65072016845528 -4 Z"/><path class="relationship overlay" fill="rgba(255, 255, 255, 0)" stroke="rgba(255, 255, 255, 0)" stroke-width="10px" transform="translate(443.80979919433594,790.1658782958984) rotate(-49.63811886074607)" d="M 181.32705411037335 4 L 848.4728162218967 4 L 848.4728162218967 16 L 880.4728162218967 0 L 848.4728162218967 -16 L 848.4728162218967 -4 L 181.32705411037335 -4 Z"/><path class="relationship overlay" fill="rgba(255, 255, 255, 0)" stroke="rgba(255, 255, 255, 0)" stroke-width="10px" transform="translate(-512.5105419158936,651.6122283935547) rotate(-20.75964838068489)" d="M 198.8582528952615 4 L 1572.9557565398072 4 L 1572.9557565398072 16 L 1604.9557565398072 0 L 1572.9557565398072 -16 L 1572.9557565398072 -4 L 198.8582528952615 -4 Z"/><path class="relationship overlay" fill="rgba(255, 255, 255, 0)" stroke="rgba(255, 255, 255, 0)" stroke-width="10px" transform="translate(-512.5105419158936,651.6122283935547) rotate(39.15509194613495)" d="M 198.8582528952615 4 L 1490.9677270052225 4 L 1490.9677270052225 16 L 1522.9677270052225 0 L 1490.9677270052225 -16 L 1490.9677270052225 -4 L 198.8582528952615 -4 Z"/></g></svg>